HIERARCHY
ROOT Joint1
{
	OFFSET 0.000000 0.000000 0.000000
	CHANNELS 6 Xposition Yposition Zposition Xrotation Yrotation Zrotation
	JOINT Joint2
	{
		OFFSET -0.000000 0.000000 1.456275
		CHANNELS 6 Xposition Yposition Zposition Xrotation Yrotation Zrotation
		JOINT Joint3
		{
			OFFSET -0.000000 0.000002 1.471446
			CHANNELS 6 Xposition Yposition Zposition Xrotation Yrotation Zrotation
			JOINT Joint4
			{
				OFFSET 0.625745 0.000000 0.917755
				CHANNELS 6 Xposition Yposition Zposition Xrotation Yrotation Zrotation
				JOINT Joint5
				{
					OFFSET -0.629534 0.000001 0.940221
					CHANNELS 6 Xposition Yposition Zposition Xrotation Yrotation Zrotation
					JOINT Joint6
					{
						OFFSET -0.000001 0.113772 1.960660
						CHANNELS 6 Xposition Yposition Zposition Xrotation Yrotation Zrotation
						JOINT Joint7
						{
							OFFSET -0.669733 -0.113771 0.388340
							CHANNELS 6 Xposition Yposition Zposition Xrotation Yrotation Zrotation
							End Site
							{
								OFFSET 0.005509 0.005509 0.438980
							}
						}
					}
				}
			}
		}
	}
}
MOTION
Frames: 19
Frame Time: 0.041667
0.000000 0.000000 0.000000 -0.000000 1.019410 40.306767 -0.000000 -0.000000 1.456275 -0.000000 2.017462 -0.000001 -0.000000 0.000002 1.471445 -0.000004 -1.133454 73.407000 0.625745 0.000000 0.917755 0.000001 126.570591 -0.000000 -0.629533 0.000001 0.940220 -0.000003 1.709739 72.133922 -0.000001 0.113772 1.960660 -88.303882 126.057302 0.000001 -0.669733 -0.113771 0.388339 0.284187 2.785694 58.412024 
0.000000 0.000000 0.000000 -0.000000 1.019410 41.396247 -0.000000 0.000000 1.456275 -0.000000 3.287693 -0.000003 -0.000000 0.000002 1.471446 -0.000004 -1.133454 75.391519 0.625745 0.000000 0.917755 0.000003 126.342503 -0.000001 -0.629534 0.000001 0.940221 -0.000002 1.709739 74.083777 -0.000001 0.113772 1.960660 -88.303875 127.032667 -0.000003 -0.669733 -0.113771 0.388340 0.292061 2.749854 56.344064 
0.000000 0.000000 0.000000 -0.000000 1.019410 42.485730 -0.000000 -0.000000 1.456275 -0.000000 4.557923 -0.000002 -0.000000 0.000002 1.471445 -0.000004 -1.133454 77.376051 0.625745 0.000000 0.917754 0.000004 126.114430 -0.000006 -0.629534 0.000001 0.940221 0.000001 1.709736 76.033632 -0.000001 0.113772 1.960660 -88.303882 128.008045 0.000005 -0.669733 -0.113771 0.388341 0.298633 2.713755 54.276163 
0.000000 0.000000 0.000000 -0.000000 1.019410 43.575214 -0.000000 0.000000 1.456275 0.000000 5.828154 0.000003 -0.000000 0.000002 1.471446 -0.000004 -1.133454 79.360569 0.625745 0.000000 0.917755 0.000002 125.886370 -0.000003 -0.629534 0.000001 0.940221 0.000000 1.709736 77.983494 -0.000001 0.113772 1.960660 -88.303875 128.983396 0.000006 -0.669733 -0.113771 0.388340 0.303906 2.677439 52.208340 
0.000000 0.000000 0.000000 -0.000000 1.019410 44.664697 -0.000000 0.000000 1.456275 0.000000 7.098383 0.000000 -0.000000 0.000002 1.471446 -0.000005 -1.133455 81.345094 0.625744 0.000000 0.917755 0.000005 125.658282 0.000001 -0.629534 0.000001 0.940221 0.000001 1.709735 79.933349 -0.000001 0.113772 1.960661 -88.303875 129.958761 0.000000 -0.669733 -0.113771 0.388340 0.307853 2.640960 50.140572 
0.000000 0.000000 0.000000 -0.000000 1.019410 45.754177 -0.000000 -0.000000 1.456275 0.000000 8.368614 0.000003 -0.000000 0.000002 1.471445 -0.000005 -1.133454 83.329612 0.625745 0.000000 0.917755 0.000006 125.430195 -0.000000 -0.629534 0.000001 0.940220 -0.000004 1.709737 81.883204 -0.000001 0.113772 1.960660 -88.303882 130.934112 -0.000002 -0.669733 -0.113771 0.388340 0.310484 2.604363 48.072866 
0.000000 0.000000 0.000000 -0.000000 1.019410 46.843661 -0.000000 0.000000 1.456275 -0.000000 9.638844 -0.000001 -0.000000 0.000002 1.471446 -0.000006 -1.133455 85.314138 0.625745 0.000000 0.917755 0.000002 125.202121 -0.000000 -0.629534 0.000001 0.940221 -0.000008 1.709737 83.833066 -0.000001 0.113772 1.960660 -88.303875 131.909476 -0.000001 -0.669733 -0.113771 0.388340 0.311792 2.567697 46.005224 
0.000000 0.000000 0.000000 -0.000000 1.019410 47.933141 -0.000000 0.000000 1.456275 -0.000000 10.909073 0.000001 -0.000000 0.000002 1.471446 -0.000005 -1.133455 87.298663 0.625745 0.000000 0.917754 0.000005 124.974034 -0.000004 -0.629534 0.000001 0.940221 -0.000001 1.709738 85.782928 -0.000001 0.113772 1.960660 -88.303875 132.884841 0.000005 -0.669733 -0.113771 0.388340 0.311771 2.531001 43.937647 
0.000000 0.000000 0.000000 -0.000000 1.019410 49.022624 -0.000000 -0.000000 1.456275 0.000000 12.179306 0.000000 -0.000000 0.000002 1.471445 -0.000006 -1.133455 89.283188 0.625745 0.000000 0.917755 -0.000001 124.745947 0.000002 -0.629534 0.000001 0.940220 -0.000001 1.709737 87.732769 -0.000000 0.113772 1.960661 -88.303882 133.860192 -0.000006 -0.669733 -0.113771 0.388340 0.310429 2.494335 41.870115 
0.000000 0.000000 0.000000 -0.000000 1.019410 50.112101 -0.000000 0.000000 1.456275 -0.000000 13.449536 0.000000 -0.000000 0.000002 1.471445 -0.000006 -1.133454 91.267706 0.625745 0.000000 0.917754 0.000004 124.517873 -0.000003 -0.629534 0.000001 0.940222 -0.000002 1.709735 89.682631 -0.000001 0.113772 1.960660 -88.303875 134.835557 0.000000 -0.669733 -0.113771 0.388340 0.307760 2.457739 39.802651 
0.000000 0.000000 0.000000 -0.000000 1.019410 51.201588 -0.000000 -0.000000 1.456275 0.000001 14.719770 -0.000001 -0.000000 0.000002 1.471446 -0.000005 -1.133455 93.252224 0.625745 0.000000 0.917755 0.000006 124.289799 0.000001 -0.629534 0.000001 0.940221 0.000000 1.709740 91.632493 -0.000001 0.113772 1.960661 -88.303875 135.810935 -0.000003 -0.669733 -0.113771 0.388341 0.303776 2.421266 37.735245 
0.000000 0.000000 0.000000 -0.000000 1.019410 52.291068 -0.000000 -0.000000 1.456275 0.000000 15.989995 0.000001 -0.000000 0.000002 1.471446 -0.000006 -1.133454 95.236756 0.625745 0.000000 0.917755 0.000006 124.061712 -0.000005 -0.629533 0.000001 0.940221 -0.000004 1.709734 93.582341 -0.000001 0.113772 1.960660 -88.303875 136.786300 -0.000003 -0.669733 -0.113771 0.388340 0.298475 2.384954 35.667883 
0.000000 0.000000 0.000000 -0.000000 1.019410 53.380548 -0.000000 0.000000 1.456275 -0.000001 17.260223 0.000001 -0.000001 0.000002 1.471445 -0.000007 -1.133454 97.221275 0.625745 0.000000 0.917754 0.000006 123.833638 -0.000001 -0.629533 0.000001 0.940221 -0.000001 1.709735 95.532196 -0.000001 0.113772 1.960661 -88.303882 137.761651 0.000000 -0.669733 -0.113771 0.388340 0.291867 2.348861 33.600579 
0.000000 0.000000 0.000000 -0.000000 1.019410 54.470031 -0.000000 0.000000 1.456275 -0.000000 18.530459 -0.000002 -0.000000 0.000002 1.471445 -0.000007 -1.133454 99.205807 0.625745 0.000000 0.917755 0.000007 123.605565 0.000001 -0.629534 0.000001 0.940221 -0.000001 1.709736 97.482058 -0.000001 0.113772 1.960661 -88.303875 138.737015 0.000001 -0.669733 -0.113771 0.388340 0.283964 2.313034 31.533317 
0.000000 0.000000 0.000000 -0.000000 1.019410 55.559528 -0.000000 -0.000000 1.456275 0.000000 19.800706 -0.000002 -0.000000 0.000002 1.471446 -0.000008 -1.133455 101.190359 0.625745 0.000000 0.917755 0.000004 123.377477 -0.000001 -0.629533 0.000001 0.940221 -0.000003 1.709737 99.431947 -0.000001 0.113772 1.960660 -88.303882 139.712394 0.000004 -0.669733 -0.113771 0.388341 0.274765 2.277504 29.466075 
0.000000 0.000000 0.000000 -0.000000 1.019410 56.648995 -0.000000 0.000000 1.456275 -0.000000 21.070917 -0.000001 -0.000000 0.000002 1.471445 -0.000006 -1.133456 103.174857 0.625745 0.000000 0.917755 0.000007 123.149404 0.000000 -0.629534 0.000001 0.940221 0.000000 1.709737 101.381775 -0.000001 0.113772 1.960660 -88.303882 140.687745 -0.000002 -0.669733 -0.113771 0.388341 0.264297 2.242337 27.398930 
0.000000 0.000000 0.000000 -0.000000 1.019410 57.738424 -0.000000 -0.000000 1.456275 -0.000001 22.341084 0.000000 -0.000000 0.000002 1.471446 -0.000006 -1.133452 105.159286 0.625745 0.000000 0.917755 0.000004 122.921344 -0.000001 -0.629534 0.000001 0.940221 -0.000002 1.709735 103.331528 -0.000001 0.113772 1.960661 -88.303882 141.663055 -0.000001 -0.669733 -0.113771 0.388340 0.252564 2.207569 25.331910 
0.000000 0.000000 0.000000 -0.000000 1.019410 58.827962 -0.000000 0.000000 1.456275 -0.000000 23.611378 -0.000001 -0.000000 0.000002 1.471446 -0.000008 -1.133452 107.143900 0.625745 0.000001 0.917755 0.000005 122.693229 -0.000003 -0.629534 0.000001 0.940221 -0.000003 1.709737 105.281485 -0.000001 0.113772 1.960661 -88.303882 142.638474 0.000002 -0.669733 -0.113771 0.388340 0.239583 2.173245 23.264719 
0.000000 0.000000 0.000000 -0.000000 1.019410 59.917643 -0.000000 0.000000 1.456275 0.000000 24.881852 -0.000001 -0.000001 0.000002 1.471446 -0.000007 -1.133456 109.128794 0.625745 0.000000 0.917755 0.000006 122.465128 -0.000002 -0.629534 0.000001 0.940221 -0.000001 1.709737 107.231716 -0.000001 0.113772 1.960660 -88.303882 143.614016 0.000002 -0.669733 -0.113771 0.388340 0.225370 2.139406 21.197284 
